<?xml version="1.0" encoding="UTF-8"?>
<svg version="1.1" xmlns="http://www.w3.org/2000/svg" width="500" height="500">
<path d="M0 0 C0.69754395 0.01933594 1.39508789 0.03867187 2.11376953 0.05859375 C36.35624039 1.13684706 67.55531701 11.89124405 97 29 C97.66 29.33 98.32 29.66 99 30 C99 30.66 99 31.32 99 32 C99.72574219 32.268125 100.45148438 32.53625 101.19921875 32.8125 C103.96864024 33.98670381 106.30919434 35.3394324 108.8125 37 C109.60269531 37.515625 110.39289063 38.03125 111.20703125 38.5625 C112.09455078 39.2740625 112.09455078 39.2740625 113 40 C113 40.66 113 41.32 113 42 C113.81791016 42.35771484 113.81791016 42.35771484 114.65234375 42.72265625 C117.59113683 44.32163352 119.98704897 46.30355486 122.5625 48.4375 C123.51253906 49.21996094 124.46257812 50.00242188 125.44140625 50.80859375 C129.55715959 54.33368936 129.55715959 54.33368936 131 56 C131 56.66 131 57.32 131 58 C131.598125 58.268125 132.19625 58.53625 132.8125 58.8125 C134.99847854 59.99917406 136.41332594 61.09599113 138 63 C138 63.66 138 64.32 138 65 C138.99 65.33 139.98 65.66 141 66 C142.48632812 67.59472656 142.48632812 67.59472656 144.03125 69.640625 C144.59457031 70.38183594 145.15789062 71.12304688 145.73828125 71.88671875 C146.61033203 73.05654297 146.61033203 73.05654297 147.5 74.25 C148.08136719 75.01441406 148.66273438 75.77882813 149.26171875 76.56640625 C157 86.81918621 157 86.81918621 157 90 C157.66 90 158.32 90 159 90 C161.3652938 94.31666118 163.69230311 98.65238614 166 103 C166.49693359 103.93054199 166.49693359 103.93054199 167.00390625 104.87988281 C173.99290813 118.05620695 180.108178 132.02355681 183.26098633 146.6628418 C183.78983127 149.05094271 184.37078075 151.42774009 184.9855957 153.79516602 C188.19402709 166.67038949 188.61696938 179.17857862 188.52148438 192.40600586 C188.50004821 195.92957524 188.52139382 199.45110156 188.546875 202.97460938 C188.56408402 216.80532577 187.34697155 229.58537882 184 243 C183.74863281 244.09465576 183.49726563 245.18931152 183.23828125 246.31713867 C182.62424045 248.93612262 181.95898481 251.53028568 181.25 254.125 C180.87983765 255.48093262 180.87983765 255.48093262 180.50219727 256.86425781 C177.89355221 265.9981197 174.15813202 274.48045954 170 283 C169.53464844 283.98484375 169.06929688 284.9696875 168.58984375 285.984375 C164.17310951 295.13028127 158.69646105 303.60973056 153 312 C152.34 312.99 151.68 313.98 151 315 C150.34 315 149.68 315 149 315 C149 315.99 149 316.98 149 318 C148.34 318 147.68 318 147 318 C146.6596875 318.7734375 146.6596875 318.7734375 146.3125 319.5625 C144.51782382 322.89547005 142.50034985 326.14703671 140 329 C139.34 329 138.68 329 138 329 C137.731875 329.598125 137.46375 330.19625 137.1875 330.8125 C136.00082594 332.99847854 134.90400887 334.41332594 133 336 C132.34 336 131.68 336 131 336 C130.731875 336.598125 130.46375 337.19625 130.1875 337.8125 C129.00082594 339.99847854 127.90400887 341.41332594 126 343 C125.34 343 124.68 343 124 343 C123.67 343.99 123.34 344.98 123 346 C120.84903382 347.88537877 118.70567927 349.6424116 116.4375 351.375 C115.80360352 351.86524658 115.16970703 352.35549316 114.51660156 352.8605957 C102.58278057 362 102.58278057 362 99 362 C99 362.66 99 363.32 99 364 C94.68333882 366.3652938 90.34761386 368.69230311 86 371 C85.06945801 371.49693359 85.06945801 371.49693359 84.12011719 372.00390625 C73.413904 377.68270888 62.46373412 382.08859888 51 386 C49.8346875 386.4021875 48.669375 386.804375 47.46875 387.21875 C0.85469739 402.44908402 -53.45520458 395.03769962 -97 374 C-110.09544044 367.294448 -122.35411236 359.45673588 -133.625 349.98046875 C-135.94195511 347.99534886 -135.94195511 347.99534886 -138.3125 346.36328125 C-138.869375 345.91339844 -139.42625 345.46351563 -140 345 C-140 344.34 -140 343.68 -140 343 C-140.8353125 342.6596875 -140.8353125 342.6596875 -141.6875 342.3125 C-144.65855185 340.62622733 -146.64522125 338.469646 -149 336 C-149.928125 335.113125 -150.85625 334.22625 -151.8125 333.3125 C-154 331 -154 331 -154 329 C-154.99 328.67 -155.98 328.34 -157 328 C-158.80844324 325.97513651 -160.4758511 323.96100077 -162.125 321.8125 C-162.60928467 321.18827148 -163.09356934 320.56404297 -163.5925293 319.92089844 C-168.47431956 313.53560319 -172.81125509 306.85618649 -177 300 C-177.46043701 299.266604 -177.92087402 298.53320801 -178.39526367 297.77758789 C-182.34851945 291.3791773 -185.59359206 284.7873689 -188.6875 277.9375 C-189.15994141 276.91333984 -189.63238281 275.88917969 -190.11914062 274.83398438 C-199.21658855 254.86553276 -204.56387584 231.95158278 -205 210 C-205.02046387 209.17193848 -205.04092773 208.34387695 -205.06201172 207.49072266 C-205.51477252 186.63753294 -204.35355754 166.21421467 -199 146 C-198.82098145 145.29713867 -198.64196289 144.59427734 -198.45751953 143.87011719 C-195.49407312 132.34942186 -191.10586999 121.72668631 -186 111 C-185.53335938 110.00871094 -185.06671875 109.01742187 -184.5859375 107.99609375 C-178.28353113 95.0050045 -170.11581776 83.27417224 -161.26953125 71.91796875 C-159.91661265 70.17850198 -158.59051091 68.41678826 -157.32421875 66.61328125 C-156.66873047 65.81470703 -156.66873047 65.81470703 -156 65 C-155.34 65 -154.68 65 -154 65 C-153.773125 64.44828125 -153.54625 63.8965625 -153.3125 63.328125 C-151.61274074 60.31307583 -149.45195184 58.18769631 -147 55.75 C-146.113125 54.85796875 -145.22625 53.9659375 -144.3125 53.046875 C-142 51 -142 51 -140 51 C-139.67 50.01 -139.34 49.02 -139 48 C-136.89031128 46.15732335 -134.78710802 44.44250466 -132.5625 42.75 C-131.92723389 42.26055908 -131.29196777 41.77111816 -130.63745117 41.2668457 C-108.67306809 24.44217816 -83.02886653 11.24739071 -56 5 C-54.91332031 4.74089844 -53.82664063 4.48179688 -52.70703125 4.21484375 C-35.45436989 0.40432254 -17.62751904 -0.55276518 0 0 Z " fill="#61C2A2" transform="translate(258,53)"/>
<path d="M0 0 C1.32 0.33 2.64 0.66 4 1 C4.08636719 1.85980469 4.17273438 2.71960938 4.26171875 3.60546875 C5.0395911 10.14958752 6.02614166 15.55118092 8.625 21.625 C11.15338466 27.7439901 12.16125444 33.41955815 11 40 C9.14751706 43.54763171 7.61043308 46.14599382 4 48 C-0.28938857 48.4085132 -2.86254983 48.48025674 -6.8125 46.8125 C-10.50615704 43.75204131 -11.74816691 41.10419123 -12.8125 36.4375 C-13.87840457 23.42861927 -8.14901824 10.0138406 0 0 Z " fill="#F6FBF9" transform="translate(248,203)"/>
<path d="M0 0 C2.050863 3.07629451 3.24138277 5.92826431 4.5625 9.375 C4.99691406 10.49648437 5.43132812 11.61796875 5.87890625 12.7734375 C7.9675966 18.78479022 9.2063252 24.73582594 6.9375 30.875 C5 33 5 33 1.625 34.1875 C-2 34 -2 34 -4.9375 31.8125 C-8.27218165 27.04235936 -7.7501695 21.53761485 -7 16 C-5.45862182 10.1637137 -3.19251544 5.11351327 0 0 Z " fill="#6CC6A8" transform="translate(247,213)"/>
<path d="M0 0 C3 1 3 1 4.53393555 3.65209961 C5.32731323 5.38472046 5.32731323 5.38472046 6.13671875 7.15234375 C6.42102249 7.76767471 6.70532623 8.38300568 6.99824524 9.01698303 C7.59723566 10.31856729 8.19120567 11.62247194 8.78051758 12.9284668 C9.68449345 14.93084027 10.60347288 16.92575498 11.52539062 18.91992188 C16 28.68143435 16 28.68143435 16 31 C13 30 13 30 11.3125 27.0625 C10 24 10 24 10 22 C4.06 22 -1.88 22 -8 22 C-8.66 23.98 -9.32 25.96 -10 28 C-10.66 28.99 -11.32 29.98 -12 31 C-12.66 31 -13.32 31 -14 31 C-11.83944792 24.01755353 -9.06376959 17.57051947 -5.875 11 C-5.41996094 10.04738281 -4.96492188 9.09476563 -4.49609375 8.11328125 C-1.14721411 1.14721411 -1.14721411 1.14721411 0 0 Z " fill="#F4FBF8" transform="translate(271,122)"/>
<path d="M0 0 C3.31137485 0.59941002 5.13139292 1.72079655 7.6875 3.875 C15.78737304 10.06902056 23.97996201 10.86419908 34 10 C40.97398118 8.85699596 46.32105378 7.15532651 52 3 C54.875 2.25 54.875 2.25 57 2 C56.76156231 5.21890879 55.79877962 6.20625089 53.5 8.5625 C43.90176031 16.06112476 29.91529398 15.8190255 18.40625 14.76171875 C12.32206429 13.70127089 7.87584733 10.66387763 3 7 C1.88044922 6.16275391 1.88044922 6.16275391 0.73828125 5.30859375 C0.16464844 4.87675781 -0.40898437 4.44492187 -1 4 C-0.67 2.68 -0.34 1.36 0 0 Z " fill="#F7FCFA" transform="translate(219,252)"/>
<path d="M0 0 C2.71720353 0.35876497 3.77007002 0.72831656 5.5703125 2.85546875 C6.08335937 3.62503906 6.59640625 4.39460938 7.125 5.1875 C12.55559009 12.5375228 20.8134045 17.14973844 29.8125 18.625 C30.864375 18.74875 31.91625 18.8725 33 19 C33.495 21.475 33.495 21.475 34 24 C25.23482885 24.99604218 17.12946376 20.84077342 10.1875 15.75 C5.85411393 12.13752459 1.75050301 7.962446 -1 3 C-0.67 2.01 -0.34 1.02 0 0 Z " fill="#F4FAF8" transform="translate(203,256)"/>
<path d="M0 0 C0.99 0 1.98 0 3 0 C2.60061953 7.78791922 -2.32955555 13.71550372 -7.875 18.8125 C-14.51626149 24.24396812 -20.42415795 26.60297028 -29 27 C-29 25.68 -29 24.36 -29 23 C-28.31035156 22.78085937 -27.62070312 22.56171875 -26.91015625 22.3359375 C-16.99704423 18.99077213 -9.77638928 15.29398214 -4.2890625 6.1484375 C-2.96910588 3.94850981 -1.69944857 1.92604172 0 0 Z " fill="#F4FAF8" transform="translate(293,255)"/>
<path d="M0 0 C0.66 0 1.32 0 2 0 C3.00696568 2.10084209 4.0053589 4.20579489 5 6.3125 C5.556875 7.48425781 6.11375 8.65601563 6.6875 9.86328125 C8 13 8 13 8 16 C3.38 16 -1.24 16 -6 16 C-5.16583712 11.82918558 -4.21232487 8.96469139 -2.4375 5.1875 C-1.98246094 4.21167969 -1.52742188 3.23585937 -1.05859375 2.23046875 C-0.70925781 1.49441406 -0.35992187 0.75835937 0 0 Z " fill="#66C4A5" transform="translate(271,126)"/>
<path d="M0 0 C1.875 1.1875 1.875 1.1875 3 3 C3.42822025 5.85480169 3.40659584 7.34492892 1.875 9.8125 C-0.87155972 11.55198782 -2.81846974 11.39769128 -6 11 C-7.875 9.8125 -7.875 9.8125 -9 8 C-9.42822025 5.14519831 -9.40659584 3.65507108 -7.875 1.1875 C-5.12844028 -0.55198782 -3.18153026 -0.39769128 0 0 Z " fill="#A5DCCA" transform="translate(262,349)"/>
<path d="M0 0 C0.66 0 1.32 0 2 0 C2 9.57 2 19.14 2 29 C7.94 29 13.88 29 20 29 C20 29.66 20 30.32 20 31 C13.4 31 6.8 31 0 31 C0 20.77 0 10.54 0 0 Z " fill="#FDFEFE" transform="translate(218,122)"/>
<path d="M0 0 C3.375 -0.125 3.375 -0.125 7 0 C7.66 0.66 8.32 1.32 9 2 C8.70764733 4.33882138 8.37400786 6.67284 8 9 C8.33 9.66 8.66 10.32 9 11 C8.01 10.67 7.02 10.34 6 10 C6 9.34 6 8.68 6 8 C4.68 8 3.36 8 2 8 C2 8.99 2 9.98 2 11 C1.34 11 0.68 11 0 11 C0 7.37 0 3.74 0 0 Z " fill="#E6F5F0" transform="translate(306,327)"/>
<path d="M0 0 C3.375 -0.125 3.375 -0.125 7 0 C7.66 0.66 8.32 1.32 9 2 C8.70764733 4.33882138 8.37400786 6.67284 8 9 C8.33 9.66 8.66 10.32 9 11 C8.4225 10.690625 7.845 10.38125 7.25 10.0625 C5.15705816 9.07416636 3.25464725 8.4831387 1 8 C0.67 8.99 0.34 9.98 0 11 C0 7.37 0 3.74 0 0 Z " fill="#E9F6F2" transform="translate(200,371)"/>
<path d="M0 0 C3.375 -0.125 3.375 -0.125 7 0 C7.66 0.66 8.32 1.32 9 2 C8.70764733 4.33882138 8.37400786 6.67284 8 9 C8.33 9.66 8.66 10.32 9 11 C8.4225 10.690625 7.845 10.38125 7.25 10.0625 C5.15705816 9.07416636 3.25464725 8.4831387 1 8 C0.67 8.99 0.34 9.98 0 11 C0 7.37 0 3.74 0 0 Z " fill="#E9F6F2" transform="translate(216,349)"/>
<path d="M0 0 C6.15234375 -0.09765625 6.15234375 -0.09765625 8 0 C9 1 9 1 9.1875 3.4375 C9 6 9 6 7 8 C4.375 8.125 4.375 8.125 2 8 C2 8.99 2 9.98 2 11 C1.34 11 0.68 11 0 11 C0 7.37 0 3.74 0 0 Z " fill="#DFF2EC" transform="translate(346,327)"/>
<path d="M0 0 C1.65 0.33 3.3 0.66 5 1 C4.67 2.65 4.34 4.3 4 6 C4.99 6 5.98 6 7 6 C7 7.65 7 9.3 7 11 C4.36 11 1.72 11 -1 11 C-1.66 9.68 -2.32 8.36 -3 7 C-2.34 6.01 -1.68 5.02 -1 4 C-0.36707617 1.88719655 -0.36707617 1.88719655 0 0 Z " fill="#C6E9DD" transform="translate(399,327)"/>
<path d="M0 0 C0 1.32 0 2.64 0 4 C-1.093125 4.433125 -2.18625 4.86625 -3.3125 5.3125 C-5.59545427 6.27519156 -6.91722657 6.91722657 -8.6875 8.6875 C-9.3371875 9.3371875 -9.3371875 9.3371875 -10 10 C-11.32 10 -12.64 10 -14 10 C-13.92163689 7.25729109 -13.53068306 5.54241086 -11.5859375 3.5546875 C-7.70610592 0.56362791 -5.03611017 -0.61415978 0 0 Z " fill="#F5FBF9" transform="translate(233,238)"/>
<path d="M0 0 C3.375 -0.125 3.375 -0.125 7 0 C7.66 0.66 8.32 1.32 9 2 C8.625 4.625 8.625 4.625 8 7 C5.69 7.33 3.38 7.66 1 8 C0.67 8.99 0.34 9.98 0 11 C0 7.37 0 3.74 0 0 Z " fill="#FBFDFD" transform="translate(177,349)"/>
<path d="M0 0 C0.66 0 1.32 0 2 0 C5 4.38461538 5 4.38461538 5 7 C5.66 7 6.32 7 7 7 C7.268125 6.030625 7.53625 5.06125 7.8125 4.0625 C8.4003125 2.5465625 8.4003125 2.5465625 9 1 C9.99 0.67 10.98 0.34 12 0 C12 3.63 12 7.26 12 11 C11.34 11 10.68 11 10 11 C9.67 9.35 9.34 7.7 9 6 C8.01 7.485 8.01 7.485 7 9 C6.01 8.67 5.02 8.34 4 8 C3.67 7.34 3.34 6.68 3 6 C2.67 7.65 2.34 9.3 2 11 C1.34 11 0.68 11 0 11 C0 7.37 0 3.74 0 0 Z " fill="#E2F4EE" transform="translate(95,327)"/>
<path d="M0 0 C0.66 0 1.32 0 2 0 C1.67 1.98 1.34 3.96 1 6 C5.95 5.67 10.9 5.34 16 5 C16 5.66 16 6.32 16 7 C7.585 7.495 7.585 7.495 -1 8 C-1.66 9.98 -2.32 11.96 -3 14 C-3.99 15.485 -3.99 15.485 -5 17 C-5.66 17 -6.32 17 -7 17 C-5.1668733 11.00067626 -2.92678249 5.55079437 0 0 Z " fill="#E0F3EC" transform="translate(264,136)"/>
<path d="M0 0 C3.76687864 1.88343932 4.79421646 2.69132469 7 6 C7.33 4.02 7.66 2.04 8 0 C8.66 0 9.32 0 10 0 C10 3.63 10 7.26 10 11 C6.23312136 9.11656068 5.20578354 8.30867531 3 5 C2.67 6.98 2.34 8.96 2 11 C1.34 11 0.68 11 0 11 C0 7.37 0 3.74 0 0 Z " fill="#E6F5F0" transform="translate(253,371)"/>
<path d="M0 0 C3.47733117 1.15911039 3.71562011 1.68261541 5.3125 4.8125 C5.67988281 5.49957031 6.04726563 6.18664062 6.42578125 6.89453125 C7 9 7 9 5 13 C4.01 10.03 3.02 7.06 2 4 C1.34 4 0.68 4 0 4 C-0.19335938 4.62648438 -0.38671875 5.25296875 -0.5859375 5.8984375 C-0.84632813 6.71570313 -1.10671875 7.53296875 -1.375 8.375 C-1.63023437 9.18710938 -1.88546875 9.99921875 -2.1484375 10.8359375 C-3 13 -3 13 -5 15 C-6 12 -6 12 -4.78515625 9.08203125 C-4.21667969 8.00308594 -3.64820313 6.92414063 -3.0625 5.8125 C-2.49660156 4.72582031 -1.93070312 3.63914062 -1.34765625 2.51953125 C-0.90292969 1.68808594 -0.45820313 0.85664062 0 0 Z " fill="#EAF6F2" transform="translate(271,122)"/>
<path d="M0 0 C0.99 0 1.98 0 3 0 C3.67119549 1.4562545 4.33681807 2.91507867 5 4.375 C5.556875 5.59316406 5.556875 5.59316406 6.125 6.8359375 C7 9 7 9 7 11 C6.34 11 5.68 11 5 11 C4.67 10.34 4.34 9.68 4 9 C0.97065509 8.34227572 0.97065509 8.34227572 -2 8 C-2 8.99 -2 9.98 -2 11 C-2.66 11 -3.32 11 -4 11 C-3.39301257 6.87248551 -1.96189209 3.6678852 0 0 Z " fill="#B9E4D5" transform="translate(300,349)"/>
<path d="M0 0 C0.99 0 1.98 0 3 0 C3.67119549 1.4562545 4.33681807 2.91507867 5 4.375 C5.556875 5.59316406 5.556875 5.59316406 6.125 6.8359375 C7 9 7 9 7 11 C6.34 11 5.68 11 5 11 C4.67 10.34 4.34 9.68 4 9 C0.97065509 8.34227572 0.97065509 8.34227572 -2 8 C-2 8.99 -2 9.98 -2 11 C-2.66 11 -3.32 11 -4 11 C-3.39301257 6.87248551 -1.96189209 3.6678852 0 0 Z " fill="#B9E4D5" transform="translate(178,327)"/>
<path d="M0 0 C4.87362847 0.45336079 7.39042389 1.7089159 11 5 C10.67 6.32 10.34 7.64 10 9 C6.2089881 7.55049545 2.6125362 5.84827434 -1 4 C-0.67 2.68 -0.34 1.36 0 0 Z " fill="#F0F9F6" transform="translate(265,238)"/>
<path d="M0 0 C3 1 3 1 4.16796875 3.28515625 C4.50441406 4.20167969 4.84085937 5.11820312 5.1875 6.0625 C5.53167969 6.98160156 5.87585938 7.90070313 6.23046875 8.84765625 C6.48441406 9.55792969 6.73835938 10.26820313 7 11 C6.34 11 5.68 11 5 11 C4.67 10.34 4.34 9.68 4 9 C0.97065509 8.34227572 0.97065509 8.34227572 -2 8 C-2.33 8.99 -2.66 9.98 -3 11 C-3.66 10.67 -4.32 10.34 -5 10 C-3.35 6.7 -1.7 3.4 0 0 Z " fill="#CDEBE2" transform="translate(329,327)"/>
<path d="M0 0 C3 1 3 1 4.16796875 3.28515625 C4.50441406 4.20167969 4.84085938 5.11820312 5.1875 6.0625 C5.53167969 6.98160156 5.87585938 7.90070313 6.23046875 8.84765625 C6.48441406 9.55792969 6.73835937 10.26820313 7 11 C6.01 10.67 5.02 10.34 4 10 C4 9.34 4 8.68 4 8 C1.02934491 8.34227572 1.02934491 8.34227572 -2 9 C-2.33 9.66 -2.66 10.32 -3 11 C-3.66 10.67 -4.32 10.34 -5 10 C-3.35 6.7 -1.7 3.4 0 0 Z " fill="#CEECE2" transform="translate(223,371)"/>
<path d="M0 0 C3 1 3 1 4.16796875 3.28515625 C4.50441406 4.20167969 4.84085938 5.11820312 5.1875 6.0625 C5.53167969 6.98160156 5.87585938 7.90070313 6.23046875 8.84765625 C6.48441406 9.55792969 6.73835937 10.26820313 7 11 C6.01 10.67 5.02 10.34 4 10 C4 9.34 4 8.68 4 8 C1.02934491 8.34227572 1.02934491 8.34227572 -2 9 C-2.33 9.66 -2.66 10.32 -3 11 C-3.66 10.67 -4.32 10.34 -5 10 C-3.35 6.7 -1.7 3.4 0 0 Z " fill="#CEECE2" transform="translate(122,327)"/>
<path d="M0 0 C1.670625 0.061875 1.670625 0.061875 3.375 0.125 C3.705 0.785 4.035 1.445 4.375 2.125 C1.735 2.125 -0.905 2.125 -3.625 2.125 C-3.625 3.775 -3.625 5.425 -3.625 7.125 C-1.645 7.785 0.335 8.445 2.375 9.125 C2.375 7.805 2.375 6.485 2.375 5.125 C3.035 5.125 3.695 5.125 4.375 5.125 C4.417721 6.79111905 4.41563832 8.45882885 4.375 10.125 C3.375 11.125 3.375 11.125 0 11.4375 C-3.625 11.125 -3.625 11.125 -5.625 9.4375 C-6.88826211 6.51620636 -6.64516252 5.10701353 -5.625 2.125 C-3.625 0.125 -3.625 0.125 0 0 Z " fill="#DBF1EA" transform="translate(200.625,326.875)"/>
<path d="M0 0 C2.64 0 5.28 0 8 0 C8 0.33 8 0.66 8 1 C6.02 1 4.04 1 2 1 C2 1.99 2 2.98 2 4 C3.65 4 5.3 4 7 4 C7 4.66 7 5.32 7 6 C5.35 6 3.7 6 2 6 C2 6.99 2 7.98 2 9 C3.98 9 5.96 9 8 9 C8 9.66 8 10.32 8 11 C5.36 11 2.72 11 0 11 C0 7.37 0 3.74 0 0 Z " fill="#E1F3ED" transform="translate(216,327)"/>
<path d="M0 0 C2.64 0 5.28 0 8 0 C8 0.33 8 0.66 8 1 C6.02 1 4.04 1 2 1 C2 1.99 2 2.98 2 4 C3.65 4 5.3 4 7 4 C7 4.66 7 5.32 7 6 C5.35 6 3.7 6 2 6 C2 6.99 2 7.98 2 9 C3.98 9 5.96 9 8 9 C8 9.66 8 10.32 8 11 C5.36 11 2.72 11 0 11 C0 7.37 0 3.74 0 0 Z " fill="#E1F3ED" transform="translate(287,327)"/>
<path d="M0 0 C0 0.66 0 1.32 0 2 C-1.98 2 -3.96 2 -6 2 C-6.74957157 5.47147842 -6.74957157 5.47147842 -7 9 C-5.02 9 -3.04 9 -1 9 C-1 7.68 -1 6.36 -1 5 C-0.34 5 0.32 5 1 5 C1 6.65 1 8.3 1 10 C-1.79870027 11.39935013 -3.90498792 11.25265405 -7 11 C-8.875 9.8125 -8.875 9.8125 -10 8 C-10.42317323 5.17884512 -10.38718434 3.66049093 -8.9375 1.1875 C-6.00731249 -0.60842137 -3.3527047 -0.18977574 0 0 Z " fill="#DEF2EB" transform="translate(318,371)"/>
<path d="M0 0 C2.31 0 4.62 0 7 0 C7 0.66 7 1.32 7 2 C4.03 1.505 4.03 1.505 1 1 C1.33 1.99 1.66 2.98 2 4 C4.50447516 5.21869929 4.50447516 5.21869929 7 6 C6.67 7.65 6.34 9.3 6 11 C4.02 11 2.04 11 0 11 C-0.33 10.34 -0.66 9.68 -1 9 C0.98 9 2.96 9 5 9 C5 8.34 5 7.68 5 7 C3.02 6.34 1.04 5.68 -1 5 C-0.67 3.35 -0.34 1.7 0 0 Z " fill="#DDF1EB" transform="translate(236,349)"/>
<path d="M0 0 C2.31 0 4.62 0 7 0 C7 0.66 7 1.32 7 2 C4.03 1.505 4.03 1.505 1 1 C1.33 1.99 1.66 2.98 2 4 C4.50447516 5.21869929 4.50447516 5.21869929 7 6 C6.67 7.65 6.34 9.3 6 11 C4.02 11 2.04 11 0 11 C-0.33 10.34 -0.66 9.68 -1 9 C0.98 9 2.96 9 5 9 C5 8.34 5 7.68 5 7 C3.02 6.34 1.04 5.68 -1 5 C-0.67 3.35 -0.34 1.7 0 0 Z " fill="#DDF1EB" transform="translate(139,327)"/>
<path d="M0 0 C2.31 0 4.62 0 7 0 C7 0.66 7 1.32 7 2 C5.35 2 3.7 2 2 2 C1.67 2.66 1.34 3.32 1 4 C1.78375 4.0825 2.5675 4.165 3.375 4.25 C6 5 6 5 7.3125 7.0625 C7.6528125 8.0215625 7.6528125 8.0215625 8 9 C6 11 6 11 2.875 11.125 C1.451875 11.063125 1.451875 11.063125 0 11 C-0.33 10.34 -0.66 9.68 -1 9 C0.98 9 2.96 9 5 9 C5.33 8.34 5.66 7.68 6 7 C3.69 6.34 1.38 5.68 -1 5 C-0.67 3.35 -0.34 1.7 0 0 Z " fill="#E1F3ED" transform="translate(157,327)"/>
<path d="M0 0 C0.66 0 1.32 0 2 0 C3.2890625 1.53125 3.2890625 1.53125 4.625 3.5 C5.07101562 4.1496875 5.51703125 4.799375 5.9765625 5.46875 C6.31429688 5.9740625 6.65203125 6.479375 7 7 C7.33 4.69 7.66 2.38 8 0 C8.33 0 8.66 0 9 0 C9 3.63 9 7.26 9 11 C3.125 6.25 3.125 6.25 2 4 C1.67 6.31 1.34 8.62 1 11 C0.67 11 0.34 11 0 11 C0 7.37 0 3.74 0 0 Z " fill="#F5FBF9" transform="translate(288,371)"/>
<path d="M0 0 C0.66 0 1.32 0 2 0 C3.2890625 1.53125 3.2890625 1.53125 4.625 3.5 C5.07101562 4.1496875 5.51703125 4.799375 5.9765625 5.46875 C6.31429688 5.9740625 6.65203125 6.479375 7 7 C7.33 4.69 7.66 2.38 8 0 C8.33 0 8.66 0 9 0 C9 3.63 9 7.26 9 11 C3.125 6.25 3.125 6.25 2 4 C1.67 6.31 1.34 8.62 1 11 C0.67 11 0.34 11 0 11 C0 7.37 0 3.74 0 0 Z " fill="#F5FBF9" transform="translate(276,349)"/>
<path d="M0 0 C3.3 0 6.6 0 10 0 C10 1.32 10 2.64 10 4 C6.7 4 3.4 4 0 4 C0 2.68 0 1.36 0 0 Z " fill="#F0F9F6" transform="translate(244,278)"/>
<path d="M0 0 C0.66 0 1.32 0 2 0 C2 2.97 2 5.94 2 9 C3.98 9 5.96 9 8 9 C8 9.66 8 10.32 8 11 C5.36 11 2.72 11 0 11 C0 7.37 0 3.74 0 0 Z " fill="#DEF2EB" transform="translate(317,349)"/>
<path d="M0 0 C1.32 0 2.64 0 4 0 C6.17457267 2.87354245 7 4.36436591 7 8 C4.625 7.75 4.625 7.75 2 7 C0.2058242 4.43689172 0 3.16880694 0 0 Z " fill="#ECF7F4" transform="translate(241,236)"/>
<path d="M0 0 C1.65 0 3.3 0 5 0 C5.5625 1.9375 5.5625 1.9375 6 4 C5 5 5 5 2.4375 5.0625 C1.2309375 5.0315625 1.2309375 5.0315625 0 5 C0 3.35 0 1.7 0 0 Z " fill="#75C9AE" transform="translate(201,372)"/>
<path d="M0 0 C1.65 0 3.3 0 5 0 C5.5625 1.9375 5.5625 1.9375 6 4 C5 5 5 5 2.4375 5.0625 C1.2309375 5.0315625 1.2309375 5.0315625 0 5 C0 3.35 0 1.7 0 0 Z " fill="#75C9AE" transform="translate(217,350)"/>
<path d="M0 0 C1.65 0 3.3 0 5 0 C5.5625 1.9375 5.5625 1.9375 6 4 C5 5 5 5 2.4375 5.0625 C1.2309375 5.0315625 1.2309375 5.0315625 0 5 C0 3.35 0 1.7 0 0 Z " fill="#75C9AE" transform="translate(178,350)"/>
<path d="M0 0 C1.65 1.32 3.3 2.64 5 4 C6.32 2.68 7.64 1.36 9 0 C8.566875 1.051875 8.566875 1.051875 8.125 2.125 C6.97866412 5.05452503 5.97374346 8.00921653 5 11 C4.731875 10.443125 4.46375 9.88625 4.1875 9.3125 C2.99300335 6.91066602 2.99300335 6.91066602 1.375 4.375 C0 2 0 2 0 0 Z " fill="#E8F6F1" transform="translate(365,327)"/>
<path d="M0 0 C2.64 0 5.28 0 8 0 C8.66 1.65 9.32 3.3 10 5 C9.34 5 8.68 5 8 5 C7.67 4.34 7.34 3.68 7 3 C3.97065509 2.34227572 3.97065509 2.34227572 1 2 C1 2.99 1 3.98 1 5 C0.34 5 -0.32 5 -1 5 C-0.67 3.35 -0.34 1.7 0 0 Z " fill="#E8F6F1" transform="translate(297,355)"/>
<path d="M0 0 C2.64 0 5.28 0 8 0 C8.66 1.65 9.32 3.3 10 5 C9.34 5 8.68 5 8 5 C7.67 4.34 7.34 3.68 7 3 C3.97065509 2.34227572 3.97065509 2.34227572 1 2 C1 2.99 1 3.98 1 5 C0.34 5 -0.32 5 -1 5 C-0.67 3.35 -0.34 1.7 0 0 Z " fill="#E8F6F1" transform="translate(175,333)"/>
<path d="M0 0 C2.475 0.495 2.475 0.495 5 1 C5 2.32 5 3.64 5 5 C3.35 5 1.7 5 0 5 C0 3.35 0 1.7 0 0 Z " fill="#6AC5A7" transform="translate(348,328)"/>
<path d="M0 0 C2.475 0.495 2.475 0.495 5 1 C4.67 2.32 4.34 3.64 4 5 C2.68 5 1.36 5 0 5 C0 3.35 0 1.7 0 0 Z " fill="#6AC5A7" transform="translate(308,328)"/>
<path d="M0 0 C2.33294775 -0.04241723 4.66702567 -0.04092937 7 0 C8 1 8 1 8.0625 3.5625 C8.041875 4.366875 8.02125 5.17125 8 6 C6.68 6.33 5.36 6.66 4 7 C4.66 6.67 5.32 6.34 6 6 C5.67 4.68 5.34 3.36 5 2 C3.35 1.67 1.7 1.34 0 1 C0 0.67 0 0.34 0 0 Z " fill="#E9F6F2" transform="translate(347,327)"/>
<path d="M0 0 C0.33 1.32 0.66 2.64 1 4 C-2.22791555 6.1519437 -3.28400809 6.20086443 -7 6 C-7 5.34 -7 4.68 -7 4 C-6.030625 3.71125 -5.06125 3.4225 -4.0625 3.125 C-0.89335797 2.35785318 -0.89335797 2.35785318 0 0 Z " fill="#D6EFE7" transform="translate(185,351)"/>
<path d="M0 0 C1.99097846 2.98646769 2.94124926 5.59687262 4 9 C3.01 8.67 2.02 8.34 1 8 C-0.25 5.0625 -0.25 5.0625 -1 2 C-0.67 1.34 -0.34 0.68 0 0 Z " fill="#ECF7F3" transform="translate(283,144)"/>
</svg>
